<?xml version="1.0" encoding="UTF-8"?>
<svg id="Negativo" xmlns="http://www.w3.org/2000/svg" viewBox="0 0 400 250">
  <defs>
    <style>
      .cls-1 {
        fill: #fff;
      }
    </style>
  </defs>
  <path class="cls-1" d="M64.02,136.71c2.44,1.5,6,2.75,9.74,2.75,5.56,0,8.81-2.94,8.81-7.18,0-3.93-2.25-6.18-7.93-8.37-6.87-2.44-11.12-6-11.12-11.93,0-6.56,5.43-11.43,13.62-11.43,4.31,0,7.43,1,9.31,2.06l-1.5,4.43c-1.37-.75-4.18-2-7.99-2-5.75,0-7.93,3.44-7.93,6.31,0,3.93,2.56,5.87,8.37,8.12,7.12,2.75,10.74,6.18,10.74,12.37,0,6.5-4.81,12.12-14.74,12.12-4.06,0-8.49-1.19-10.74-2.69l1.37-4.56ZM98.8,129.21c.12,7.43,4.87,10.49,10.37,10.49,3.93,0,6.31-.69,8.37-1.56l.94,3.93c-1.94.87-5.25,1.87-10.06,1.87-9.31,0-14.86-6.12-14.86-15.24s5.37-16.3,14.18-16.3c9.87,0,12.49,8.68,12.49,14.24,0,1.12-.12,2-.19,2.56h-21.23ZM114.92,125.28c.06-3.5-1.44-8.93-7.62-8.93-5.56,0-7.99,5.12-8.43,8.93h16.05ZM148.58,142.2c-1.44.75-4.62,1.75-8.68,1.75-9.12,0-15.05-6.18-15.05-15.43s6.37-16.05,16.24-16.05c3.25,0,6.12.81,7.62,1.56l-1.25,4.25c-1.31-.75-3.37-1.44-6.37-1.44-6.93,0-10.68,5.12-10.68,11.43,0,7,4.5,11.3,10.49,11.3,3.12,0,5.18-.81,6.75-1.5l.94,4.12ZM155,122.53c0-3.56-.06-6.62-.25-9.43h4.81l.19,5.93h.25c1.37-4.06,4.68-6.62,8.37-6.62.62,0,1.06.06,1.56.19v5.18c-.56-.12-1.12-.19-1.87-.19-3.87,0-6.62,2.94-7.37,7.06-.12.75-.25,1.62-.25,2.56v16.11h-5.43v-20.8ZM177.86,129.21c.12,7.43,4.87,10.49,10.37,10.49,3.93,0,6.31-.69,8.37-1.56l.94,3.93c-1.94.87-5.25,1.87-10.05,1.87-9.31,0-14.86-6.12-14.86-15.24s5.37-16.3,14.18-16.3c9.87,0,12.49,8.68,12.49,14.24,0,1.12-.12,2-.19,2.56h-21.23ZM193.97,125.28c.06-3.5-1.44-8.93-7.62-8.93-5.56,0-7.99,5.12-8.43,8.93h16.05ZM212.71,104.42v8.68h7.87v4.18h-7.87v16.3c0,3.75,1.06,5.87,4.12,5.87,1.44,0,2.5-.19,3.18-.38l.25,4.12c-1.06.44-2.75.75-4.87.75-2.56,0-4.62-.81-5.93-2.31-1.56-1.62-2.12-4.31-2.12-7.87v-16.49h-4.68v-4.18h4.68v-7.24l5.37-1.44Z"/>
  <g>
    <path class="cls-1" d="M328.08,76.26h-73.7c-6.57,0-11.89,5.33-11.89,11.89v73.7c0,6.57,5.32,11.89,11.89,11.89h73.7c6.57,0,11.89-5.33,11.89-11.89v-73.7c0-6.57-5.32-11.89-11.89-11.89ZM274.77,143.41h0s-5.46,0-5.46,0v-42.27h0s5.46,0,5.46,0v42.28ZM316.47,143.41h-5.83l-4.52-13.3h-14.99l-4.39,13.3h0s-5.64,0-5.64,0l14.36-42.27h0s6.59,0,6.59,0l14.43,42.28h0Z"/>
    <path class="cls-1" d="M292.27,125.85h12.73l-4.14-12.16c-.94-2.76-1.57-5.27-2.19-7.71h-.12c-.63,2.51-1.32,5.08-2.13,7.64l-4.14,12.23Z"/>
  </g>
</svg>